<svg aria-hidden="true" style="position:absolute;width:0;height:0;overflow:hidden" xmlns="http://www.w3.org/2000/svg">
    <defs>
        <symbol id="icon-icon1" viewBox="0 0 32 32">
            <path d="M16 .64C7.517.64.64 7.517.64 16S7.517 31.36 16 31.36 31.36 24.483 31.36 16 24.483.64 16 .64zm3.638 10.614h-2.309c-.274 0-.578.36-.578.838v1.667h2.888l-.437 2.378h-2.451v7.138h-2.725v-7.138h-2.472v-2.378h2.472v-1.398c0-2.006 1.392-3.637 3.302-3.637h2.309v2.53z"/>
        </symbol>
        <symbol id="icon-icon2" viewBox="0 0 32 32">
            <path d="M16 .64C7.517.64.64 7.517.64 16S7.517 31.36 16 31.36 31.36 24.483 31.36 16 24.483.64 16 .64zm6.248 12.582c.006.131.008.262.008.39 0 4-3.042 8.61-8.606 8.61a8.54 8.54 0 0 1-4.637-1.36c.235.029.477.04.722.04a6.063 6.063 0 0 0 3.757-1.294 3.027 3.027 0 0 1-2.826-2.1c.453.086.92.068 1.365-.053a3.024 3.024 0 0 1-2.427-2.966v-.037c.408.226.875.363 1.371.379a3.023 3.023 0 0 1-.936-4.042 8.612 8.612 0 0 0 6.236 3.164 3.026 3.026 0 0 1 5.155-2.76 6.081 6.081 0 0 0 1.92-.734 3.04 3.04 0 0 1-1.33 1.675 6.075 6.075 0 0 0 1.738-.478 6.14 6.14 0 0 1-1.509 1.566z"/>
        </symbol>
        <symbol id="icon-icon3" viewBox="0 0 32 32">
            <path d="M20.8 16a4.8 4.8 0 0 1-9.6 0c0-.274.029-.541.078-.8H9.6v6.395c0 .445.36.805.805.805h11.192a.803.803 0 0 0 .803-.804v-6.395h-1.678c.05.259.078.526.078.8zM16 19.2a3.199 3.199 0 0 0 2.956-4.427 3.207 3.207 0 0 0-2.958-1.975A3.201 3.201 0 1 0 16 19.2zm3.84-6.56h1.918a.481.481 0 0 0 .482-.48v-1.918a.485.485 0 0 0-.482-.482H19.84a.485.485 0 0 0-.482.482v1.918c.002.264.218.48.482.48zM16 .64A15.356 15.356 0 0 0 .64 16 15.356 15.356 0 0 0 16 31.36 15.36 15.36 0 1 0 16 .64zm8 21.582C24 23.2 23.2 24 22.222 24H9.777c-.978 0-1.778-.8-1.778-1.778V9.777c0-.978.8-1.778 1.778-1.778h12.445c.978 0 1.778.8 1.778 1.778v12.445z"/>
        </symbol>
        <symbol id="icon-icon4" viewBox="0 0 32 32">
            <path d="m18.565 15.733-3.594-1.677c-.314-.146-.571.018-.571.365v3.158c0 .347.258.51.571.365l3.592-1.677c.315-.147.315-.387.002-.534zM16 .64C7.517.64.64 7.517.64 16S7.517 31.36 16 31.36 31.36 24.483 31.36 16 24.483.64 16 .64zm0 21.6c-7.862 0-8-.709-8-6.24s.138-6.24 8-6.24 8 .709 8 6.24-.138 6.24-8 6.24z"/>
        </symbol>
        <symbol id="icon-icon5" viewBox="0 0 32 32">
            <path d="M16 .533c-7.069 0-12.8 5.731-12.8 12.8s5.731 12.8 12.8 12.8c7.069 0 12.8-5.731 12.8-12.8S23.069.533 16 .533zm.876 15.834c-.821-.063-1.165-.469-1.808-.859-.353 1.855-.785 3.633-2.065 4.563-.396-2.805.579-4.909 1.032-7.145-.772-1.3.092-3.915 1.721-3.272 2.004.795-1.736 4.833.775 5.339 2.621.525 3.692-4.549 2.067-6.197-2.349-2.383-6.836-.055-6.284 3.356.133.833.996 1.087.344 2.237-1.503-.333-1.952-1.519-1.893-3.099.092-2.587 2.324-4.399 4.561-4.648 2.831-.315 5.487 1.039 5.855 3.703.412 3.005-1.279 6.257-4.304 6.023z"/>
        </symbol>
    </defs>
</svg>